<?xml version="1.0" encoding="UTF-8" standalone="no"?>
<svg
   xmlns:dc="http://purl.org/dc/elements/1.1/"
   xmlns:cc="http://creativecommons.org/ns#"
   xmlns:rdf="http://www.w3.org/1999/02/22-rdf-syntax-ns#"
   xmlns:svg="http://www.w3.org/2000/svg"
   xmlns="http://www.w3.org/2000/svg"
   xmlns:sodipodi="http://sodipodi.sourceforge.net/DTD/sodipodi-0.dtd"
   xmlns:inkscape="http://www.inkscape.org/namespaces/inkscape"
   width="172.89297mm"
   height="160.74625mm"
   viewBox="0 0 172.89297 160.74625"
   version="1.1"
   id="svg1300"
   inkscape:version="1.0.2-2 (e86c870879, 2021-01-15)"
   sodipodi:docname="spinda_bn_nav.svg">
  <defs
     id="defs1294" />
  <sodipodi:namedview
     id="base"
     pagecolor="#ffffff"
     bordercolor="#666666"
     borderopacity="1.0"
     inkscape:pageopacity="0.0"
     inkscape:pageshadow="2"
     inkscape:zoom="0.35"
     inkscape:cx="303.86978"
     inkscape:cy="449.48672"
     inkscape:document-units="mm"
     inkscape:current-layer="layer1"
     inkscape:document-rotation="0"
     showgrid="false"
     inkscape:window-width="1366"
     inkscape:window-height="705"
     inkscape:window-x="-8"
     inkscape:window-y="-8"
     inkscape:window-maximized="1"
     fit-margin-top="0"
     fit-margin-left="0"
     fit-margin-right="0"
     fit-margin-bottom="0" />
  <metadata
     id="metadata1297">
    <rdf:RDF>
      <cc:Work
         rdf:about="">
        <dc:format>image/svg+xml</dc:format>
        <dc:type
           rdf:resource="http://purl.org/dc/dcmitype/StillImage" />
        <dc:title></dc:title>
      </cc:Work>
    </rdf:RDF>
  </metadata>
  <g
     inkscape:label="Camada 1"
     inkscape:groupmode="layer"
     id="layer1"
     transform="translate(-25.434453,-29.239972)">
    <g
       id="g1260"
       transform="matrix(2.0358457,0.79134093,-0.79134093,2.0358457,-133.5619,-141.72969)">
      <path
         id="rect26"
         style="fill:#000000;fill-rule:evenodd;stroke:#000000;stroke-width:0.264583"
         d="m 166.87347,88.937113 c 0.51008,-1.301214 2.35697,-4.608905 2.96726,-6.475053 1.29489,-3.959551 1.54319,-8.205121 0.67283,-11.500591 -1.63883,-6.20522 -6.75195,-11.188123 -14.68438,-14.310754 -2.23679,-0.88052 -2.41955,-1.111639 -2.43499,-3.079398 -0.009,-1.09265 0.0773,-1.448189 0.60978,-2.530078 1.41182,-2.86869 4.54214,-5.160172 12.29021,-8.996352 4.30297,-2.130449 5.29482,-2.695678 6.20272,-3.536217 3.7797,-3.49935 3.30065,-9.418918 -0.99322,-12.269018 -2.18606,-1.45103 -4.3067,-1.939348 -8.42481,-1.939417 l 3e-5,-10e-6 c -3.15839,-5e-5 -3.7338,0.105473 -7.21248,1.324983 -12.18846,4.272899 -18.18135,10.582645 -18.63194,19.617925 -0.17127,3.434498 0.44369,6.871732 1.86345,10.419001 0.37337,0.932841 0.59107,1.714113 0.50075,1.797822 -0.0879,0.0814 -1.00311,0.32588 -2.03347,0.543121 -4.45845,0.94003 -8.47882,2.806195 -12.1791,5.652884 -0.75591,0.58153 -1.53833,1.057301 -1.73891,1.057301 -0.58187,0 -1.53164,-0.753123 -1.94149,-1.539441 -0.26645,-0.511201 -0.39583,-1.151112 -0.43925,-2.173512 -0.0648,-1.52636 0.19708,-3.013099 1.49914,-8.512657 1.60447,-6.77687 1.50137,-9.944806 -0.39223,-12.050945 -1.60582,-1.786059 -3.92908,-2.062543 -7.56594,-0.900202 -4.8787,1.559229 -8.72281,4.807947 -10.60762,8.964826 -1.22781,2.70787 -1.77244,6.325323 -1.43557,9.535851 0.53808,5.128421 2.30356,9.534683 5.33559,13.317534 1.4029,1.750309 2.72254,2.785952 5.07152,3.981151 1.95504,0.994752 1.86086,0.783683 1.44022,3.232362 -0.29149,1.696881 -0.50665,5.936739 -0.4594,9.055774 0.1034,6.82508 2.63447,13.102617 6.61613,16.410367 3.37126,2.80066 7.31972,4.00506 13.23692,4.03748 l 3.26027,0.0181 c 12.29252,-1.05498 26.14393,-10.885232 29.60798,-19.152837 z M 140.405,105.38405 c -3.17851,0.45367 -6.68322,0.12879 -9.47247,-0.0882 -2.46596,-0.27966 -3.70796,-0.62227 -5.62084,-1.55029 -1.9137,-0.92841 -3.45273,-2.12456 -4.67,-3.62923 -0.98499,-1.217527 -2.37147,-3.859387 -2.27532,-4.335657 0.0569,-0.28175 0.11333,-0.27337 0.57154,0.0878 0.70998,0.55969 2.16795,1.08262 3.01842,1.08262 1.05497,0 2.57186,-0.63598 3.35277,-1.40611 2.53831,-2.50329 1.59963,-6.70828 -1.77508,-7.95249 -2.09518,-0.77247 -5.03137,0.44846 -5.8627,2.4381 -0.6833,1.63539 -1.03667,-0.49076 -0.89658,-5.395022 0.0896,-3.136649 0.61947,-7.728175 1.01027,-8.756055 0.1418,-0.372959 0.31903,-0.440576 1.42782,-0.543637 2.10521,-0.195648 2.3721,-0.455498 0.48421,-0.471289 -3.2461,-0.0271 -5.48495,-1.030642 -8.07186,-3.618383 -3.05855,-3.059531 -4.93155,-6.578372 -5.88801,-11.060824 -0.48514,-2.273599 -0.45059,-5.924061 0.0765,-8.052221 1.02095,-4.122279 3.39148,-7.053066 7.18251,-8.880078 3.35527,-1.617009 5.77711,-2.099939 6.91896,-1.379759 1.77786,1.12133 1.72697,3.618047 -0.2434,12.002367 -0.94654,4.02775 -1.03695,4.595104 -1.04851,6.580995 -0.0147,2.527688 0.23827,3.47518 1.30586,4.89014 0.51486,0.682368 1.00963,1.069274 2.00659,1.569413 0.72768,0.365048 1.36037,0.700974 1.40612,0.746723 0.0458,0.0457 -0.0934,0.38231 -0.30903,0.74776 -0.21562,0.365448 -0.35844,0.698339 -0.31729,0.739489 0.0706,0.0706 1.3788,-0.968243 3.92896,-3.120223 1.15034,-0.97073 1.81056,-1.403197 1.942,-1.271757 0.0409,0.0409 -0.18134,0.546653 -0.49403,1.123963 -2.09073,3.860118 1.68599,6.532843 7.33134,5.188313 3.47295,-0.827141 6.39793,-2.848451 7.4781,-5.168159 1.07478,-2.308151 -0.11717,-4.349631 -2.90422,-4.973341 -1.77063,-0.396251 -1.33509,-0.588643 2.06706,-0.911572 1.04593,-0.0993 2.62347,-0.232108 3.50521,-0.29559 0.88175,-0.0635 1.53334,-0.184179 1.44849,-0.2682 -0.0849,-0.084 -0.84673,-0.237887 -1.69344,-0.342098 -1.70785,-0.210209 -1.86392,-0.319771 -2.64066,-1.8526 -0.79545,-1.569741 -1.88029,-4.441502 -2.28927,-6.060612 -0.5448,-2.15688 -0.5962,-7.277996 -0.0915,-9.124508 1.511,-5.527741 5.86998,-9.65042 13.4922,-12.762012 3.94159,-1.609067 7.77879,-2.41961 10.87582,-2.355927 l 3e-5,1.8e-5 c 1.40774,0.02895 2.66255,0.238519 3.70468,0.635619 4.27717,1.629802 5.35812,6.195139 2.15284,9.090919 -0.43038,0.388829 -2.482,1.510059 -5.15679,2.817397 -8.71233,4.258263 -12.04684,6.793717 -13.86479,10.543027 -0.64586,1.33201 -0.65887,1.400439 -0.65887,3.540868 0,2.150862 0.0101,2.202844 0.66766,3.532084 0.36719,0.741932 0.95809,1.629728 1.3131,1.973006 l 0.64543,0.624253 v -0.488342 c 0,-0.594902 0.0644,-0.597561 1.49035,-0.06046 6.85288,2.58114 11.60881,7.223503 12.99714,12.686564 0.45042,1.77242 0.48747,4.848887 0.0842,6.974769 -0.6037,3.182548 -2.60808,7.763023 -5.44876,12.451952 -5.76619,8.643752 -13.66795,11.631017 -22.19276,14.106517 z m 17.49799,-73.905452 c -1.94684,0 -2.03901,0.01844 -3.37137,0.67696 -2.68069,1.32487 -5.34254,4.328137 -7.85844,8.866127 -0.95183,1.716828 -1.38706,2.684965 -1.20302,2.675805 0.0696,-0.004 0.79205,-1.001681 1.60558,-2.21847 2.85814,-4.274878 5.69807,-7.249163 7.99641,-8.374682 1.6666,-0.816139 4.58382,-0.791829 5.51181,0.04599 0.38204,0.3449 0.40961,1.154993 0.0625,1.826244 -0.86262,1.668129 -6.19143,5.251799 -6.84196,4.601271 -0.28579,-0.28579 0.41806,-1.564884 1.45159,-2.638084 0.46492,-0.482759 1.43582,-1.279469 2.15801,-1.770951 1.51498,-1.031029 1.72699,-1.529252 0.58549,-1.376143 -2.03869,0.273441 -5.43016,3.860866 -5.43016,5.743837 0,0.723188 0.56835,1.270994 1.3131,1.265555 1.29897,-0.01 4.5277,-1.834772 6.3531,-3.591513 2.30246,-2.215859 2.45204,-4.317648 0.38189,-5.369697 -0.58517,-0.297381 -1.07125,-0.362252 -2.71456,-0.362252 z m -45.30267,16.475996 c -0.52623,0.01408 -1.09613,0.161885 -1.68827,0.46147 -0.93483,0.472972 -2.48335,2.199553 -3.04219,3.392043 -0.44678,0.953368 -0.48756,1.226577 -0.48215,3.215307 0.005,1.975619 0.0594,2.329788 0.59842,3.89382 0.7242,2.101548 2.60154,5.638265 2.85719,5.382617 0.0395,-0.0395 -0.29767,-0.953929 -0.74931,-2.031918 -1.08356,-2.586281 -1.54528,-4.35024 -1.66501,-6.361369 -0.12401,-2.082829 0.13589,-3.205451 1.06246,-4.593 1.74537,-2.613711 4.24862,-2.945006 4.88343,-0.645957 0.32193,1.16595 -0.2976,3.669798 -1.29863,5.248259 -0.59898,0.944489 -1.00897,1.028317 -1.38597,0.283187 -0.26765,-0.529022 -0.29971,-2.851431 -0.0537,-3.89227 0.18874,-0.79865 0.0809,-1.414997 -0.22944,-1.311547 -0.85631,0.28544 -1.43375,2.889903 -1.04697,4.722193 0.39531,1.87266 1.58119,2.668029 2.79415,1.873268 0.95901,-0.628369 2.22824,-3.503855 2.40812,-5.455996 0.23695,-2.571446 -1.0827,-4.230386 -2.96209,-4.180107 z m 25.65734,13.904579 c 1.47123,-0.0067 2.74712,0.35207 3.49798,1.182356 1.63632,1.809398 -1.27885,5.276477 -5.66735,6.740158 -1.36155,0.45412 -4.4342,0.649366 -5.42706,0.345196 -1.53495,-0.470239 -2.3402,-1.610603 -2.00815,-2.843752 0.80918,-3.005066 5.84478,-5.406798 9.60458,-5.423958 z m 9.34104,4.523237 c -0.11731,0.0019 -0.23241,0.01315 -0.34417,0.03411 -3.63299,0.681559 -4.67202,8.097824 -1.37356,9.803535 1.80444,0.933111 3.79462,-0.731718 3.78789,-3.168798 -0.002,-0.551662 -0.0817,-1.125437 -0.17829,-1.274858 -0.1265,-0.195749 -0.17756,-0.01841 -0.18242,0.634069 -0.0189,2.53116 -2.06928,4.068987 -3.40185,2.551266 -0.77588,-0.883669 -1.00099,-1.72688 -0.90486,-3.387389 0.10515,-1.81641 0.81007,-3.328445 1.80092,-3.862814 0.5865,-0.316301 0.73295,-0.327768 1.44229,-0.115239 1.07213,0.32122 2.93116,2.227517 3.81476,3.911907 1.83269,3.493608 1.16438,6.728833 -2.10685,10.198343 -1.17359,1.24473 -1.33544,1.47809 -0.82889,1.196308 0.34611,-0.192518 1.24924,-0.963255 2.00711,-1.712555 1.03371,-1.022022 1.55551,-1.720874 2.08773,-2.797762 0.6967,-1.409671 0.70952,-1.471912 0.70952,-3.450953 0,-2.002189 -0.005,-2.02498 -0.7581,-3.540868 -1.47537,-2.970152 -3.81158,-5.046731 -5.57123,-5.018299 z m 14.5004,3.592028 c -0.20718,-1.24e-4 -0.44846,0.01125 -0.74827,0.03049 -1.083,0.0695 -1.52289,0.192341 -2.21382,0.617532 -1.04122,0.64076 -1.91902,1.887069 -2.22415,3.158979 -0.67699,2.822012 1.74733,5.808599 4.68291,5.769158 0.56407,-0.008 1.28481,-0.109403 1.60197,-0.226343 1.08806,-0.401148 2.12639,-1.296279 2.67529,-2.306318 0.44651,-0.82165 0.53598,-1.195694 0.53899,-2.253093 0.006,-1.96859 -0.94457,-3.493725 -2.71715,-4.360974 -0.66039,-0.323101 -0.97422,-0.429059 -1.59577,-0.429431 z m -0.42994,1.106392 c 1.26124,0.0082 2.53633,0.642858 3.25716,2.031402 1.48363,2.85791 -1.4338,6.211173 -4.47828,5.146972 -1.51123,-0.528259 -2.44735,-1.906649 -2.44223,-3.59668 0.007,-2.266902 1.81998,-3.593587 3.66335,-3.581694 z m -33.20883,3.460256 c -1.72932,0.01378 -3.07966,1.681165 -3.68401,4.698936 -1.1019,5.502251 1.32077,9.194721 7.04608,10.739401 1.85731,0.5011 2.06266,0.27444 0.32349,-0.35709 -2.7041,-0.98192 -4.35975,-2.15382 -5.44049,-3.851961 -1.22779,-1.929198 -1.44757,-4.812461 -0.57671,-7.560262 0.47637,-1.50309 1.45093,-2.630329 2.27428,-2.630329 2.31451,0 5.00397,3.946155 4.24884,6.234245 -0.64601,1.957419 -2.81396,1.468207 -4.35012,-0.981853 l -0.3974,-0.634068 0.11989,0.543634 c 0.17518,0.795181 0.92786,2.006735 1.49913,2.412772 2.116,1.503982 4.26929,0.284128 4.27571,-2.422072 0.005,-2.129002 -1.7445,-4.799328 -3.80493,-5.807398 -0.53564,-0.262062 -1.04955,-0.387818 -1.53376,-0.383955 z m 15.81661,5.392435 c -0.51317,0.0113 -6.09848,4.229693 -6.16139,4.653463 -0.12241,0.824629 3.5692,1.657614 4.97903,1.123444 1.35118,-0.51195 1.94642,-1.592482 1.93942,-3.51968 -0.006,-1.53956 -0.25009,-2.268376 -0.75706,-2.257227 z m -0.58756,1.732193 c 0.69825,-0.0466 0.32188,2.151589 -0.47595,2.779159 -0.46195,0.363379 -1.59061,0.463974 -2.73316,0.243912 -0.22413,-0.0432 -0.40773,-0.187322 -0.40773,-0.320392 0,-0.28063 3.20445,-2.675149 3.61684,-2.702679 z m 12.01063,3.712435 c -4.09153,-0.03571 -7.62383,1.292154 -11.98635,4.465364 -5.25553,3.82277 -7.43572,6.82459 -6.14691,8.46305 0.8291,1.05403 2.75201,1.30831 4.61626,0.61081 1.88943,-0.70693 4.44916,-2.4126 6.52673,-4.3496 0.517,-0.48202 1.0346,-0.87644 1.1498,-0.87644 0.11519,0 0.57844,0.32504 1.02991,0.72244 1.19912,1.05552 2.61464,1.70384 3.43028,1.57148 0.80119,-0.13001 1.50999,-0.75806 1.50999,-1.33842 0,-0.54951 -0.43389,-1.39007 -1.20406,-2.33267 -0.92727,-1.13489 -0.84754,-1.26734 0.84749,-1.4087 1.96689,-0.16404 3.27875,-0.68452 4.36408,-1.73065 1.04174,-1.0041 1.15265,-1.65413 0.42994,-2.51302 -0.66843,-0.79439 -1.74024,-1.155012 -3.74137,-1.258324 -0.27815,-0.01437 -0.55302,-0.02294 -0.82579,-0.02532 z m -0.0517,1.171506 c 3.70792,-0.02201 4.92844,0.896948 2.97191,2.237588 -0.92981,0.63711 -1.93348,0.91454 -3.75223,1.03766 -0.91565,0.062 -1.80747,0.186 -1.98179,0.27544 -0.67226,0.34493 -0.30038,1.46847 1.03818,3.13779 0.73989,0.9227 0.8621,1.27785 0.53382,1.5503 -0.4382,0.36368 -1.78489,-0.28796 -3.05976,-1.48054 -0.62655,-0.5861 -1.27268,-1.06556 -1.43609,-1.06556 -0.16342,0 -1.09039,0.69948 -2.05982,1.55442 -2.18871,1.93021 -4.47881,3.47419 -5.81515,3.92069 -1.441,0.48147 -2.54801,0.56633 -3.1254,0.23927 -0.68499,-0.38801 -0.75956,-0.76903 -0.32607,-1.6645 0.91952,-1.89947 6.17116,-6.20584 9.67744,-7.93544 2.64405,-1.30426 4.61989,-1.790978 7.33496,-1.807118 z m -33.60932,1.894458 c 1.91307,0.0477 3.61166,1.6022 3.61166,3.70778 0,1.59551 -1.02333,2.98412 -2.58433,3.50677 -0.92825,0.31079 -1.64088,0.24794 -2.67839,-0.23513 -2.75038,-1.28056 -2.73399,-5.39019 0.0263,-6.64404 0.5368,-0.24384 1.08904,-0.34875 1.6247,-0.33538 z"
         sodipodi:nodetypes="csssccscsssssssssssssssssssssscccscsssssssssscsssssssssssssssssssssssssssscsssscccscsssccssssscssssscssssssssssssssssssssssssssssssssssssscssssscsscssssssssssssssccsscsssssscsssssccssssssssssscssssssssssssscsssssssssscccssssssss" />
      <path
         style="fill:#000000;fill-rule:evenodd;stroke:#000000;stroke-width:0.264583"
         d="m 144.27694,79.933521 c -0.51317,0.0113 -6.09848,4.229693 -6.16139,4.653463 -0.12241,0.824629 3.5692,1.657614 4.97903,1.123444 1.35118,-0.51195 1.94642,-1.592482 1.93942,-3.51968 -0.006,-1.53956 -0.25009,-2.268376 -0.75706,-2.257227 z"
         id="path218" />
    </g>
  </g>
</svg>
