<?xml version="1.0" encoding="UTF-8" standalone="no"?>
<svg
   xmlns:dc="http://purl.org/dc/elements/1.1/"
   xmlns:cc="http://creativecommons.org/ns#"
   xmlns:rdf="http://www.w3.org/1999/02/22-rdf-syntax-ns#"
   xmlns:svg="http://www.w3.org/2000/svg"
   xmlns="http://www.w3.org/2000/svg"
   xmlns:sodipodi="http://sodipodi.sourceforge.net/DTD/sodipodi-0.dtd"
   xmlns:inkscape="http://www.inkscape.org/namespaces/inkscape"
   width="131.5788mm"
   height="163.42256mm"
   viewBox="0 0 131.5788 163.42256"
   version="1.1"
   id="svg8"
   inkscape:version="1.0.2-2 (e86c870879, 2021-01-15)"
   sodipodi:docname="spinda.svg">
  <defs
     id="defs2" />
  <sodipodi:namedview
     id="base"
     pagecolor="#ffffff"
     bordercolor="#666666"
     borderopacity="1.0"
     inkscape:pageopacity="0.0"
     inkscape:pageshadow="2"
     inkscape:zoom="0.7"
     inkscape:cx="195.38758"
     inkscape:cy="182.01449"
     inkscape:document-units="mm"
     inkscape:current-layer="layer1"
     inkscape:document-rotation="0"
     showgrid="false"
     showguides="true"
     inkscape:guide-bbox="true"
     inkscape:window-width="1366"
     inkscape:window-height="705"
     inkscape:window-x="-8"
     inkscape:window-y="-8"
     inkscape:window-maximized="1"
     fit-margin-top="0"
     fit-margin-left="0"
     fit-margin-right="0"
     fit-margin-bottom="0">
    <sodipodi:guide
       position="-29.000156,171.17705"
       orientation="1,0"
       id="guide1110" />
  </sodipodi:namedview>
  <metadata
     id="metadata5">
    <rdf:RDF>
      <cc:Work
         rdf:about="">
        <dc:format>image/svg+xml</dc:format>
        <dc:type
           rdf:resource="http://purl.org/dc/dcmitype/StillImage" />
        <dc:title></dc:title>
      </cc:Work>
    </rdf:RDF>
  </metadata>
  <g
     inkscape:label="Camada 1"
     inkscape:groupmode="layer"
     id="layer1"
     transform="translate(-41.294555,-68.691941)">
    <g
       id="g1201"
       transform="matrix(1.4801939,0,0,1.4801939,-110.47516,32.918713)">
      <path
         style="fill:#feecd4;fill-opacity:1;stroke:none;stroke-width:0.714286"
         d="m 593.36614,435.35057 c -10.50678,-3.76538 -21.79743,-13.39554 -31.98783,-27.28348 -3.19738,-4.35753 -8.27512,-12.52741 -8.27512,-13.31433 0,-0.19772 2.41071,-1.4581 5.35714,-2.80084 5.37366,-2.44886 6.76591,-3.90596 3.73208,-3.90596 -0.89379,0 -5.47415,0.93383 -10.17857,2.07518 -27.30296,6.62402 -48.43758,8.72072 -62.48208,6.19868 -11.30448,-2.03001 -22.41701,-7.76356 -29.98889,-15.4729 -3.64609,-3.71228 -9.63511,-12.99456 -10.48764,-16.25462 -0.34729,-1.32803 -0.18317,-1.31171 3.22833,0.32097 7.54804,3.61237 15.05747,2.65559 21.13331,-2.69257 4.35086,-3.82978 6.20417,-7.93804 6.20417,-13.75284 0,-13.08825 -11.26516,-21.73381 -23.78736,-18.25582 -3.97809,1.10489 -9.30118,5.0046 -11.01066,8.06642 -2.17174,3.88978 -2.43412,2.5462 -2.43412,-12.46463 0,-12.85581 1.39114,-29.2903 3.0457,-35.9808 l 0.88287,-3.57008 5.61511,-0.85456 c 3.08831,-0.47 5.77228,-1.01173 5.96438,-1.20383 1.04163,-1.04162 -1.15918,-1.71707 -7.04164,-2.16114 -11.11145,-0.8388 -18.00552,-3.96404 -26.89071,-12.19016 -11.4747,-10.62355 -20.04158,-26.21281 -23.36083,-42.51 -0.96588,-4.74237 -1.1648,-8.4694 -0.91495,-17.14286 0.27889,-9.68156 0.56532,-11.80559 2.26521,-16.7973 2.5959,-7.62284 6.54432,-14.11571 11.61781,-19.10456 5.28039,-5.19231 8.13033,-7.11158 16.23348,-10.93234 7.43346,-3.505 13.79148,-5.32024 18.63447,-5.32024 4.13318,0 6.96869,2.47185 8.26907,7.20856 1.44461,5.26206 -0.62324,18.35557 -7.7169,48.86287 -1.46812,6.31385 -1.637,21.51262 -0.29048,26.142 1.51764,5.2177 5.5219,9.88516 11.3079,13.18076 4.96243,2.82651 5.0586,2.93509 4.11283,4.64286 -1.1417,2.06157 -1.30797,4.24866 -0.32299,4.24866 0.64051,0 7.84673,-5.6001 15.7785,-12.26179 1.79313,-1.50602 3.44975,-2.73821 3.68137,-2.73821 0.23162,0 -0.19085,1.61059 -0.93882,3.57909 -1.74112,4.58223 -1.71757,7.374 0.0937,11.11566 6.41201,13.24546 35.78016,10.86211 51.89379,-4.21141 5.88915,-5.50901 8.3781,-10.46352 7.9358,-15.79705 -0.5122,-6.17649 -4.08781,-9.93063 -11.64042,-12.22165 l -2.85715,-0.86669 3.21429,-0.47163 c 1.76786,-0.2594 7.99746,-0.91818 13.84355,-1.46396 9.51446,-0.88824 12.9082,-1.72014 11.74848,-2.87984 -0.21127,-0.21129 -3.03955,-0.85102 -6.28505,-1.42164 -3.2455,-0.57061 -6.4025,-1.44774 -7.01555,-1.94918 -1.69398,-1.38556 -7.56653,-14.32208 -10.07883,-22.20246 -5.16954,-16.21536 -4.3847,-36.94352 1.87065,-49.40551 9.55238,-19.0304 33.69431,-35.28827 64.32555,-43.31869 9.76115,-2.55902 24.80734,-3.57807 31.53301,-2.13567 18.41161,3.94858 25.70953,21.49777 13.78299,33.14372 -1.783,1.74106 -9.14967,5.95983 -21.26224,12.17654 -34.36822,17.63931 -44.38818,25.33269 -51.38686,39.45508 -2.46109,4.96614 -2.50427,5.20776 -2.50427,14.01118 0,8.7858 0.0474,9.05235 2.46369,13.87528 1.35503,2.70457 3.92646,6.3504 5.71429,8.10184 l 3.25059,3.18443 v -2.33971 c 0,-2.75939 -0.13287,-2.77824 9.46874,1.34304 21.14819,9.07737 36.44937,24.16207 42.37012,41.77066 2.322,6.90571 3.13705,19.35256 1.78158,27.20661 -2.08687,12.09197 -9.82468,30.20481 -21.01841,49.20035 -5.67091,9.62341 -6.3867,11.50221 -4.16035,10.92 0.91492,-0.23925 1.5651,0.26191 2.19968,1.69553 0.49547,1.11933 3.59141,5.49362 6.87987,9.72062 14.96456,19.2355 19.31712,31.88012 15.34353,44.5745 -2.56246,8.18624 -11.91153,18.35528 -20.70858,22.52486 -5.29977,2.51196 -14.40325,3.02128 -19.75037,1.105 z m -55.48955,-60.86159 c 7.00829,-2.46322 11.84717,-5.71057 26.98003,-18.10616 1.57614,-1.29105 1.64725,-1.26598 6.21444,2.19092 4.83408,3.6589 10.07608,5.65303 12.9585,4.92959 0.93426,-0.23448 2.55445,-1.0995 3.60043,-1.92227 3.0115,-2.36885 2.62666,-5.811 -1.2768,-11.42005 -1.74823,-2.51209 -3.04552,-4.70049 -2.88289,-4.86312 0.16264,-0.16263 2.95906,-0.69242 6.21429,-1.1773 7.36675,-1.09733 11.80457,-3.15306 15.52887,-7.19345 3.82085,-4.14513 3.94582,-7.06318 0.45213,-10.55688 -3.21475,-3.21475 -7.94695,-4.35864 -17.91955,-4.3316 -16.54877,0.0449 -29.1892,4.9638 -47.14285,18.34525 -9.5872,7.14565 -18.71603,16.17126 -20.93748,20.70074 -1.92565,3.92634 -2.19005,8.39721 -0.63677,10.76781 2.68747,4.10158 11.26529,5.3015 18.84765,2.63652 z m -33.34483,-33.80252 c 0,-0.512 -2.65179,-2.00826 -5.89286,-3.32501 -7.44968,-3.02659 -12.23036,-6.07016 -16.01084,-10.19316 -5.1114,-5.57449 -6.72305,-10.11699 -6.74258,-19.00427 -0.0145,-6.58811 1.02841,-11.36745 3.49108,-15.99885 3.4954,-6.57361 7.51427,-7.069 13.52274,-1.66688 4.36257,3.92233 7.33657,9.30614 7.84111,14.19472 0.34715,3.36351 0.17913,4.0061 -1.60048,6.12104 -1.68039,1.99704 -2.32027,2.29663 -4.13147,1.93439 -2.9937,-0.59874 -6.37892,-3.36276 -8.78725,-7.17478 -1.12563,-1.78169 -2.2687,-3.24001 -2.54015,-3.24071 -1.97348,-0.005 -0.70757,5.04787 2.3073,9.20979 3.03399,4.18828 5.94967,5.78302 10.57911,5.78626 3.37188,0.002 4.09846,-0.27436 6.17637,-2.35227 3.84104,-3.84104 4.75157,-8.90759 2.78867,-15.51734 -2.9801,-10.03513 -12.03061,-18.49626 -19.83208,-18.5406 -7.94493,-0.0451 -13.51401,7.95543 -15.46713,22.22025 -2.45112,17.90196 6.18843,30.81025 24.61842,36.78221 5.73794,1.85929 9.68004,2.17092 9.68004,0.76521 z m 38.57869,-17.10479 c 4.37939,-2.98058 5.32494,-4.98416 5.58624,-11.83688 0.44806,-11.75148 -1.57831,-12.72325 -11.5748,-5.55088 -9.19423,6.59676 -16.16156,12.42973 -16.16156,13.53027 0,2.77441 6.96945,5.33891 14.7158,5.41488 4.13755,0.0406 5.50835,-0.24658 7.43432,-1.55739 z m 24.03714,-11.84085 c 5.48883,-4.33867 10.25505,-10.07503 12.84572,-15.46043 2.27873,-4.73692 2.39559,-5.36993 2.39559,-12.97649 0,-9.12529 -0.75144,-11.54124 -6.08501,-19.56409 -7.32403,-11.0169 -16.47811,-15.95595 -23.16448,-12.4983 -7.69048,3.9769 -12.15947,18.09384 -9.02501,28.50885 3.04715,10.1249 13.05408,13.48388 18.93079,6.3544 2.66763,-3.23629 4.14659,-9.15179 3.21326,-12.85228 -1.00203,-3.97289 -2.22169,-3.69052 -2.81109,0.65078 -1.36285,10.03848 -7.11168,13.59955 -12.058,7.46925 -2.09845,-2.60075 -2.21399,-3.06956 -2.20032,-8.92857 0.0245,-10.51672 4.2854,-17.30018 10.17292,-16.19568 3.8813,0.72814 11.36954,8.61875 14.83655,15.63378 6.15643,12.4567 3.61977,23.39029 -8.49917,36.6334 -2.2136,2.41894 -4.02473,4.7493 -4.02473,5.17857 0,1.49104 2.03405,0.76513 5.47298,-1.95319 z m 52.17595,-12.17612 c 3.53885,-1.82637 7.71303,-6.19757 9.10191,-9.53151 1.71223,-4.11013 1.43766,-11.60284 -0.58431,-15.945 -3.91556,-8.4086 -13.74197,-12.39574 -23.4105,-9.49898 -6.0589,1.8153 -11.6798,9.11812 -12.52756,16.27616 -0.9816,8.28809 5.2673,17.23902 14.05263,20.12897 2.80253,0.9219 10.38203,0.1113 13.36783,-1.42964 z M 419.53176,242.63419 c 0,-0.61934 -1.4033,-4.71755 -3.11845,-9.10715 -3.95583,-10.12423 -5.53741,-17.07788 -5.65206,-24.85014 -0.0823,-5.5794 0.12307,-6.58919 2.19695,-10.80184 2.44693,-4.97042 7.43571,-10.19473 10.45991,-10.95376 4.40535,-1.10567 8.24839,2.42443 8.25383,7.58173 0.006,5.64894 -4.48042,17.40103 -7.01404,18.37326 -1.94757,0.74736 -2.36641,-1.5919 -1.98999,-11.11423 0.3166,-8.00887 0.20799,-9.56244 -0.69266,-9.90805 -4.16892,-1.59977 -7.62725,12.1418 -5.22931,20.77852 1.77815,6.40444 7.52725,8.77043 12.05457,4.96094 4.57214,-3.8472 8.59818,-14.51395 8.5727,-22.71287 -0.0334,-10.75044 -5.88198,-16.16111 -15.08312,-13.95379 -4.83792,1.16059 -11.81332,7.59399 -14.87335,13.71766 -2.06822,4.13887 -2.1707,4.76257 -2.1707,13.21107 0,7.56248 0.26262,9.64944 1.78494,14.18435 1.67417,4.98727 7.06636,16.44605 9.45339,20.08912 1.22558,1.87046 3.04739,2.17247 3.04739,0.50518 z m 136.39508,-84.27978 c 16.9541,-24.6818 28.72602,-34.60367 41.03987,-34.59018 11.63707,0.0127 13.48557,5.01963 4.7948,12.98734 -6.59072,6.04239 -17.93381,12.97128 -19.18562,11.71948 -1.5296,-1.52961 4.88788,-8.70888 13.97901,-15.6384 5.41349,-4.12632 5.70976,-5.9367 0.93572,-5.71788 -8.26888,0.37899 -21.53029,14.20575 -21.53029,22.44816 0,3.62445 2.77694,5.91546 6.55893,5.41119 8.48816,-1.13177 25.31448,-12.97086 29.16673,-20.52188 0.86927,-1.70392 1.4172,-4.19736 1.4172,-6.44926 0,-3.20335 -0.3014,-3.97271 -2.36458,-6.03588 -3.12675,-3.12675 -7.08442,-4.10063 -15.4645,-3.80541 -5.99285,0.21112 -7.43262,0.5279 -11.47603,2.52495 -10.63222,5.25127 -21.68672,17.95497 -31.33154,36.00583 -2.00698,3.7562 -3.64907,7.36523 -3.64907,8.02005 0,2.74053 2.22837,0.74764 7.10937,-6.35811 z"
         id="path1143"
         transform="scale(0.26458333)" />
      <path
         id="path1145"
         style="fill:#efaf94;fill-opacity:0.636905;stroke:none;stroke-width:0.999999px;stroke-linecap:butt;stroke-linejoin:miter;stroke-opacity:1"
         d="m 637.51172,105.87891 c -4.1619,9.36162 -12.18095,19.8248 -26.83789,30.22851 -5.17993,7.51174 -20.26313,17.81502 -28.1543,18.86719 -1.69812,0.22642 -3.18978,-0.11643 -4.32226,-0.88477 -29.75681,15.89516 -26.14844,36.32422 -26.14844,36.32422 0,0 -9.25598,-3.58953 -21.47071,-3.50195 0.5654,4.00793 1.419,7.9379 2.59571,11.62891 2.14858,6.73949 6.73564,17.12343 9.08398,20.87109 18.01319,3.1323 59.85913,13.5923 70.15039,44.32227 6.70037,0.53816 12.60829,4.2862 15.4336,10.35351 2.02197,4.34216 2.29621,11.83518 0.58398,15.94531 -1.38888,3.33394 -5.56271,7.70488 -9.10156,9.53125 -2.9858,1.54094 -10.56661,2.35159 -13.36914,1.42969 -0.41034,-0.13498 -0.80824,-0.29629 -1.20703,-0.45703 -4.57542,7.3192 -10.73245,14.64569 -18.22657,21.5293 0.40938,-0.007 0.81049,-0.0262 1.22461,-0.0274 9.9726,-0.027 14.70518,1.11728 17.91993,4.33203 3.49369,3.4937 3.36772,6.41151 -0.45313,10.55664 -3.7243,4.04039 -8.16059,6.09603 -15.52734,7.19336 -3.25523,0.48488 -6.05221,1.01511 -6.21485,1.17774 -0.16263,0.16263 1.13459,2.34924 2.88282,4.86133 3.90346,5.60905 4.28884,9.05302 1.27734,11.42187 -1.04598,0.82277 -2.6673,1.6874 -3.60156,1.92188 -2.88242,0.72344 -8.12491,-1.27079 -12.95899,-4.92969 -4.56719,-3.4569 -4.63675,-3.48246 -6.21289,-2.19141 -15.13286,12.39559 -19.97218,15.64225 -26.98047,18.10547 -7.58236,2.66498 -16.16018,1.46486 -18.84765,-2.63672 -1.55328,-2.3706 -1.28893,-6.84124 0.63672,-10.76758 0.7149,-1.45767 2.20013,-3.40947 4.13086,-5.58593 -14.85445,3.73786 -30.88962,5.28705 -47.58204,3.78515 -0.784,1.01106 -1.7146,1.98313 -2.79882,2.9375 -6.07584,5.34816 -13.58478,6.30573 -21.13282,2.69336 -3.4115,-1.63268 -3.5758,-1.65029 -3.22851,-0.32226 0.85253,3.26006 6.84219,12.54358 10.48828,16.25586 7.57188,7.70934 18.6838,13.44264 29.98828,15.47265 14.0445,2.52204 35.17946,0.4248 62.48242,-6.19922 4.70442,-1.14135 9.2859,-2.07421 10.17969,-2.07421 3.03383,0 1.64124,1.45543 -3.73242,3.90429 -2.59681,1.18341 -4.77295,2.30119 -5.25391,2.68555 21.78033,-5.11119 40.9503,-12.08803 48.84375,-21.38477 18.39086,24.9758 18.96518,40.21502 8.8125,61.8711 0.8034,-0.25846 1.56304,-0.5495 2.25391,-0.87696 8.79705,-4.16958 18.14457,-14.33915 20.70703,-22.52539 3.97359,-12.69438 -0.37724,-25.33872 -15.3418,-44.57422 -3.28846,-4.227 -6.38539,-8.60137 -6.88086,-9.7207 -0.63458,-1.43362 -1.2843,-1.93456 -2.19922,-1.69531 -2.22635,0.58221 -1.51075,-1.29651 4.16016,-10.91992 11.19373,-18.99554 18.93071,-37.10921 21.01758,-49.20117 1.35547,-7.85405 0.54075,-20.30133 -1.78125,-27.20704 -5.92075,-17.60859 -21.22095,-32.69216 -42.36914,-41.76953 -9.60161,-4.12128 -9.46875,-4.10314 -9.46875,-1.34375 v 2.33985 l -3.25196,-3.1836 c -1.78783,-1.75144 -4.35786,-5.39699 -5.71289,-8.10156 -2.41629,-4.82293 -2.46484,-5.09115 -2.46484,-13.87695 0,-8.80342 0.0428,-9.04363 2.50391,-14.00977 6.99868,-14.12239 17.0185,-21.81577 51.38672,-39.45508 12.11256,-6.21671 19.48067,-10.43667 21.26367,-12.17773 10.37216,-10.12814 6.19905,-24.71637 -7.17383,-30.94531 z"
         transform="scale(0.26458333)" />
      <path
         id="path1147"
         style="fill:#ff9f6c;fill-opacity:1;stroke:none;stroke-width:0.275013px;stroke-linecap:butt;stroke-linejoin:miter;stroke-opacity:1"
         d="m 118.85896,41.296853 c -1.33189,0 -3.08051,0.498694 -5.12481,1.462615 -2.22847,1.050759 -3.01195,1.578929 -4.46412,3.006882 -1.39528,1.371998 -2.48151,3.157333 -3.19542,5.253713 -0.46749,1.372785 -0.54584,1.957342 -0.62254,4.619897 -0.0687,2.385314 -0.0142,3.410219 0.25138,4.714432 0.60473,2.969145 1.8457,5.850038 3.53005,8.307862 2.94101,0.233527 6.55011,-0.433962 10.34199,-3.373205 -0.28621,-0.438423 -0.50467,-0.90166 -0.64456,-1.382584 -0.37031,-1.273139 -0.32372,-5.453158 0.08,-7.189549 1.95085,-8.389904 2.5195,-11.990902 2.12221,-13.438037 -0.35762,-1.302656 -1.13755,-1.982026 -2.27422,-1.982026 z"
         sodipodi:nodetypes="ssssssccssss" />
      <path
         style="fill:#ea9366;fill-opacity:1;stroke:none;stroke-width:0.150744"
         d="m 134.34357,117.09632 c -1.4534,-0.24158 -1.44958,-0.25497 0.52023,-1.8249 3.39752,-2.70781 4.42553,-4.11882 5.03933,-6.91684 0.17072,-0.77822 0.39214,-1.78804 0.49203,-2.24404 0.0999,-0.456 0.24215,-0.82909 0.31611,-0.82909 0.25075,0 0.71443,0.77462 0.8644,1.44406 0.23144,1.03313 1.40012,3.3734 2.50702,5.02025 l 1.00375,1.4934 -0.47507,0.3966 c -0.8224,0.68657 -2.91653,1.86268 -4.63755,2.60456 -2.194,0.94577 -3.70663,1.17575 -5.63025,0.856 z"
         id="path1149" />
      <path
         style="fill:#ea9366;fill-opacity:1;stroke:none;stroke-width:0.212349"
         d="m 168.68058,96.147707 c -0.75915,-0.450673 -1.68495,-0.925669 -2.05735,-1.055552 -0.47798,-0.16671 -0.80579,-0.502049 -1.11483,-1.14043 -0.24076,-0.497355 -0.43775,-0.994021 -0.43775,-1.1037 0,-0.109679 1.04942,-0.471827 2.33204,-0.804773 1.56044,-0.405065 3.15247,-1.020034 4.81164,-1.858647 1.36377,-0.689307 2.51355,-1.219325 2.55506,-1.177818 0.17404,0.174045 -0.8844,3.126481 -1.65374,4.612947 -0.83649,1.616211 -2.31884,3.39982 -2.79724,3.36573 -0.14166,-0.01011 -0.87868,-0.387085 -1.63783,-0.837757 z"
         id="path1151" />
      <path
         style="fill:#efaf94;fill-opacity:0.458333;stroke:none;stroke-width:0.12562"
         d="m 188.43384,107.16352 c -2.64593,-1.15949 -3.38901,-1.20229 -5.95351,-1.64881 -2.10942,-0.36729 -4.10074,-0.86432 -5.62629,-0.52972 -0.55273,0.12124 -1.05255,0.22959 -1.11071,0.24079 -0.098,0.0189 -0.95703,-2.7999 -0.96048,-3.15152 -0.007,-0.68643 8.86819,0.97301 12.74885,2.38379 2.3503,0.85443 2.49202,1.42803 2.98666,2.18294 0.31083,0.47439 -1.4615,0.79554 -2.08452,0.52253 z"
         id="path1153"
         sodipodi:nodetypes="sssscsss" />
      <path
         id="path1155"
         style="fill:#efaf94;fill-opacity:0.866071;stroke:none;stroke-width:0.110413"
         d="m 158.36582,131.16536 c 0.0412,-0.34918 0.1568,-1.2808 0.25711,-2.07026 0.13146,-1.03461 0.18384,-2.34477 0.18765,-4.69257 0.005,-3.2311 -0.0545,-3.8919 -0.443,-4.89854 -0.0929,-0.24061 0.62227,-0.12572 2.2431,0.40064 l 1.06,0.34423 -0.0111,0.39689 -0.0111,0.39688 h 1.2975 c 0.71362,0 1.29744,0.0199 1.29736,0.0442 -7e-5,0.0243 -0.24209,0.42179 -0.5378,0.88331 -1.168,1.82293 -2.05665,3.92038 -2.73696,6.45994 -0.78319,2.92363 -1.63835,3.14908 -1.9416,3.26439 -0.15305,0.0581 -0.38124,0.10583 -0.50711,0.10583 -0.21365,0 -0.22387,-0.0421 -0.1541,-0.63487 z"
         sodipodi:nodetypes="ssssscccssssssss" />
      <path
         id="path1157"
         style="fill:#fca06f;fill-opacity:1;stroke:none;stroke-width:0.264583px;stroke-linecap:butt;stroke-linejoin:miter;stroke-opacity:1"
         d="m 164.77166,97.687012 c -7.9e-4,-0.631867 -0.76866,-0.601887 -0.93544,-0.935445 -0.0199,-0.03984 0.0315,-0.102137 0,-0.133633 -0.063,-0.063 -0.18759,0.03984 -0.26727,0 -0.55616,-0.278079 0.14286,0.0092 -0.13364,-0.267271 -0.063,-0.063 -0.20427,0.063 -0.26727,0 -0.20962,-0.209622 -1.46998,-1.872329 -1.46998,-2.271789 0,-0.124968 -0.26585,-0.402326 -0.13363,-0.534541 0.063,-0.06299 0.20427,0.063 0.26727,0 0.14115,-0.141147 0.26457,-0.399552 0.53454,-0.534537 0.44826,-0.224134 1.04811,-0.386927 1.46998,-0.668177 0.21566,-0.143771 0.44098,-0.420941 0.66817,-0.534537 0.0797,-0.03984 0.20428,0.06299 0.26727,0 0.0315,-0.0315 -0.0315,-0.102137 0,-0.133636 0.0208,-0.02082 0.51372,-0.02082 0.53454,0 0.61455,5.943027 5.05902,2.65375 7.88445,8.552624 -0.037,0.34416 0.0728,0.53649 0.26727,0.80181 0.0565,0.40798 0.1102,0.71956 0.40091,0.93544 -0.086,0.26596 0.0958,0.20279 0.13363,0.26727 0.21828,0.3094 0.42214,0.76828 0.40091,1.06908 0.36004,0.1744 0.27379,1.13703 0.4009,1.60362 0.26659,0.006 0.14742,0.326 0.13363,0.53454 0.88293,1.4052 -0.0776,3.52238 0.53454,4.81085 -0.13514,1.16072 0.33166,2.77409 0,3.87541 -0.45183,0.56853 -0.39168,1.25826 -0.53454,1.87088 -3.00958,2.54634 -2.35797,3.09578 -7.48354,5.21176 -0.14021,-0.035 -1.17207,-0.29791 -1.33635,-0.13364 -0.16277,0.16277 -0.0626,0.29857 -0.26727,0.40091 -0.21034,0.10517 -2.58727,0.3527 -2.6727,0.26727 -0.0315,-0.0315 0.0315,-0.10214 0,-0.13364 -0.0891,-0.0891 -0.44545,0.0891 -0.53454,0 -0.0315,-0.0315 0.0315,-0.10213 0,-0.13363 -1.54789,-0.23609 -2.58134,-1.03966 -3.8754,-1.06908 -0.52722,-0.26361 -1.00392,-0.16787 -1.46999,-0.4009 -0.35576,-0.17789 -0.95529,0.12701 -1.33634,0 -0.44377,-0.14792 -1.04869,-0.19026 -1.46999,-0.40091 -0.28508,-0.14254 -0.78398,0.14255 -1.06907,0 -0.47258,-0.23629 -0.90851,-0.39417 -1.46999,-0.53454 -0.15036,-0.0376 -0.39752,0.0685 -0.53453,0 -0.46571,-0.23285 -0.97825,-0.37062 -1.46999,-0.53454 -0.30078,-0.10026 -1.57135,0.0323 -1.73725,-0.13363 -0.0539,-0.0539 -0.0874,-0.33161 -0.13363,-0.4009 -0.1639,-0.24585 -0.5363,-0.40443 -0.66818,-0.66818 -0.0534,-0.10691 0.0535,-0.294 0,-0.4009 -0.12364,-0.2473 -0.0473,-0.40906 -0.13363,-0.66818 -0.0508,-0.15236 -0.21648,-0.24854 -0.26727,-0.4009 -0.0856,-0.25672 -0.0146,-0.56376 -0.13364,-0.80181 -0.0996,-0.1993 -0.29897,-0.33069 -0.4009,-0.53454 -0.0405,-0.081 -0.0776,-0.3449 -0.13364,-0.4009 -0.0315,-0.0315 -0.10213,0.0315 -0.13363,0 -0.063,-0.063 0.063,-0.20428 0,-0.26727 -0.0315,-0.0315 -0.10214,0.0315 -0.13363,0 -0.0996,-0.0996 -0.0555,-0.2837 -0.13364,-0.40091 0.0133,-0.26474 -0.19684,-0.0632 -0.26727,-0.13363 -0.0246,-0.0246 -0.10901,-0.37628 -0.13363,-0.40091 -0.0315,-0.0315 -0.10214,0.0315 -0.13364,0 -0.0315,-0.0315 0.0199,-0.0938 0,-0.13363 -2.31575,-0.80057 -2.77911,-4.87018 -4.29923,-6.3524 -0.0963,-0.0962 -0.86331,-0.94123 -0.77889,-0.99751 0.24744,-0.16496 0.9107,-0.52217 1.20271,-0.66818 0.28509,-0.14254 0.78399,0.14255 1.06908,0 0.15567,-0.0778 0.24524,-0.18943 0.40091,-0.26726 0.1402,-0.0701 0.56151,0.10666 0.66817,0 0.0315,-0.0315 -0.0315,-0.10214 0,-0.13364 0.0399,-0.0399 0.51733,0.004 0.53454,0 0.38475,-0.0962 0.52622,-0.26727 0.93544,-0.26727 l 8.41899,10.55715 5.7463,1.60361 5.21175,-2.13815 3.47451,-3.34087 1.06908,-5.07812 -2.13816,-4.94449 -2.13816,-3.0736"
         sodipodi:nodetypes="csssssssssssssccccccccccccsssssccsssssssscccsscssssscsssccssssssccccccccc" />
      <path
         id="path1159"
         style="fill:#000000;fill-rule:evenodd;stroke:#000000;stroke-width:0.264583"
         d="m 163.0789,24.300225 c -3.15839,-5e-5 -3.7338,0.105473 -7.21248,1.324983 -12.18846,4.272899 -18.18135,10.582645 -18.63194,19.617925 -0.17127,3.434498 0.44369,6.871732 1.86345,10.419001 0.37337,0.932841 0.59107,1.714113 0.50075,1.797822 -0.0879,0.0814 -1.00311,0.32588 -2.03347,0.543121 -4.45845,0.94003 -8.47882,2.806195 -12.1791,5.652884 -0.75591,0.58153 -1.53833,1.057301 -1.73891,1.057301 -0.58187,0 -1.53164,-0.753123 -1.94149,-1.539441 -0.26645,-0.511201 -0.39583,-1.151112 -0.43925,-2.173512 -0.0648,-1.52636 0.19708,-3.013099 1.49914,-8.512657 1.60447,-6.77687 1.50137,-9.944806 -0.39223,-12.050945 -1.60582,-1.786059 -3.92908,-2.062543 -7.56594,-0.900202 -4.8787,1.559229 -8.72281,4.807947 -10.60762,8.964826 -1.22781,2.70787 -1.77244,6.325323 -1.43557,9.535851 0.53808,5.128421 2.30356,9.534683 5.33559,13.317534 1.4029,1.750309 2.72254,2.785952 5.07152,3.981151 1.95504,0.994752 1.86086,0.783683 1.44022,3.232362 -0.29149,1.696881 -0.50665,5.936739 -0.4594,9.055774 0.1034,6.82508 2.63447,13.102617 6.61613,16.410367 3.37126,2.80066 7.31972,4.00506 13.23692,4.03748 l 3.26027,0.0181 -0.0605,0.45268 c -0.0331,0.24903 -0.27969,0.90033 -0.54777,1.44746 -0.42895,0.87544 -0.76932,1.20424 -2.83756,2.74195 -3.63365,2.70156 -3.61786,2.6853 -3.61786,3.75119 0,1.11655 0.40587,1.60745 1.87068,2.26137 3.12055,1.39305 6.75916,1.26794 9.44904,-0.32505 1.55658,-0.92183 3.70174,-2.17432 3.81992,-2.23036 0.0589,-0.0279 0.711,0.45524 1.44901,1.07384 0.738,0.61859 1.8306,1.43378 2.42827,1.81126 0.82888,0.52352 1.39717,1.10653 2.39521,2.45773 1.77615,2.40464 2.58537,4.00793 2.58537,5.12165 0,0.98417 -0.55627,2.93665 -1.19786,4.20491 -0.6424,1.26987 -0.58459,2.19871 0.18397,2.96727 0.59017,0.59016 0.67177,0.61598 1.96577,0.61598 0.74258,0 2.39069,-0.0843 3.66231,-0.18759 2.58798,-0.21014 3.24821,-0.45043 3.61425,-1.31465 0.13521,-0.31924 0.5461,-2.12933 0.9126,-4.02197 1.0205,-5.27007 1.65761,-6.32908 4.40025,-7.31015 2.05762,-0.73603 3.63458,-1.66677 5.0493,-2.98121 1.11113,-1.03237 2.3152,-2.7134 2.83497,-3.95738 0.42792,-1.02415 3.26428,-2.96735 5.65289,-3.87315 1.01145,-0.38356 1.7573,-0.51059 3.71088,-0.63201 3.69645,-0.22974 5.15627,-0.80603 5.93142,-2.34042 1.24615,-2.46672 -0.61857,-4.8382 -5.14852,-6.54792 -0.82908,-0.31291 -1.51336,-0.61909 -1.52084,-0.68058 -0.007,-0.0615 -0.0335,-0.57589 -0.0579,-1.143077 -0.0328,-0.76322 -0.2188,-1.38409 -0.71571,-2.38952 -1.45527,-2.94453 -2.62913,-3.82598 -5.37849,-4.038 -0.79932,-0.0616 -1.49551,-0.17975 -1.54667,-0.26252 -0.0512,-0.0828 0.068,-0.70194 0.26458,-1.37614 0.45303,-1.55445 0.75486,-3.61371 0.62425,-4.25917 -0.14447,-0.71392 -1.20146,-1.585262 -1.92133,-1.583881 -0.64774,0.0011 -0.6974,0.02429 -3.42356,1.600421 -2.10643,1.21785 -4.67444,2.3828 -5.25239,2.3828 -0.35841,0 -0.35788,-0.009 0.03,-0.5886 0.77725,-1.16156 2.35697,-4.608905 2.96726,-6.475053 1.29489,-3.959551 1.54319,-8.205121 0.67283,-11.500591 -1.63883,-6.20522 -6.75195,-11.188123 -14.68438,-14.310754 -2.23679,-0.88052 -2.41955,-1.111639 -2.43499,-3.079398 -0.009,-1.09265 0.0773,-1.448189 0.60978,-2.530078 1.41182,-2.86869 4.54214,-5.160172 12.29021,-8.996352 4.30297,-2.130449 5.29482,-2.695678 6.20272,-3.536217 3.7797,-3.49935 3.30065,-9.418918 -0.99322,-12.269018 -2.18606,-1.45103 -4.3067,-1.939348 -8.42481,-1.939417 z m 1.59267,2.655652 c 1.40774,0.02895 2.66255,0.238519 3.70468,0.635619 4.27717,1.629802 5.35812,6.195139 2.15284,9.090919 -0.43038,0.388829 -2.482,1.510059 -5.15679,2.817397 -8.71233,4.258263 -12.04684,6.793717 -13.86479,10.543027 -0.64586,1.33201 -0.65887,1.400439 -0.65887,3.540868 0,2.150862 0.0101,2.202844 0.66766,3.532084 0.36719,0.741932 0.95809,1.629728 1.3131,1.973006 l 0.64543,0.624253 v -0.488342 c 0,-0.594902 0.0644,-0.597561 1.49035,-0.06046 6.85288,2.58114 11.60881,7.223503 12.99714,12.686564 0.45042,1.77242 0.48747,4.848887 0.0842,6.974769 -0.6037,3.182548 -2.60808,7.763023 -5.44876,12.451952 -1.65544,2.73252 -1.78308,3.03005 -1.02733,2.39572 0.35777,-0.30029 0.97791,-0.55157 1.71153,-0.69298 2.1213,-0.40891 5.48635,-1.30335 6.67452,-1.77457 0.64748,-0.25678 1.88109,-0.86213 2.74144,-1.34514 0.86035,-0.48301 1.61429,-0.8785 1.67535,-0.8785 0.21903,0 0.10409,0.88963 -0.27233,2.10943 -0.71016,2.30128 -2.0449,4.53301 -3.29179,5.50406 l -0.50592,0.39377 -0.68626,-0.45423 c -0.79043,-0.52309 -2.99927,-1.64964 -3.59978,-1.83607 -0.71232,-0.22114 -0.46402,0.31692 0.36329,0.78704 2.8503,1.61969 5.66525,4.386117 6.82594,6.708107 1.01364,2.02782 1.18783,2.81527 1.18132,5.35213 -0.007,2.69194 -0.26041,3.85935 -1.34049,6.17172 -1.54988,3.31815 -5.32502,6.08596 -9.61078,7.0466 -1.73234,0.3883 -2.22557,0.58788 -2.07119,0.83767 0.082,0.13271 0.50794,0.15788 1.27796,0.0755 0.63524,-0.068 1.15496,-0.0884 1.15496,-0.0455 0,0.043 -0.3644,0.63321 -0.81028,1.31207 -0.97338,1.48201 -1.76873,3.49342 -2.3983,6.06423 -0.25614,1.04593 -0.55604,1.99785 -0.66611,2.11563 -0.1132,0.12112 -1.04593,0.26946 -2.14716,0.34158 -1.60087,0.10485 -1.94648,0.083 -1.94458,-0.1235 0.001,-0.13811 0.21394,-0.90326 0.47232,-1.70016 0.33316,-1.02751 0.47469,-1.86999 0.48731,-2.8975 0.0158,-1.2864 -0.0457,-1.57191 -0.54726,-2.54506 -0.61494,-1.19306 -1.6769,-2.63316 -2.82825,-3.83543 -0.40342,-0.42126 -0.67639,-0.82326 -0.60668,-0.89296 0.0697,-0.0697 0.55363,0.004 1.07539,0.16381 1.92316,0.58831 4.8426,1.00514 4.8426,0.69143 0,-0.11209 -0.10182,-0.23415 -0.22635,-0.27078 -3.68932,-1.08533 -7.04989,-2.56723 -8.82943,-3.89434 -2.21915,-1.65496 -5.18095,-4.96864 -6.44974,-7.21558 -1.01932,-1.80515 -1.36396,-2.26113 -1.56063,-2.06447 -0.34279,0.34279 1.32785,3.86734 2.60243,5.49062 0.28501,0.36298 0.5178,0.7922 0.5178,0.95343 0,0.56027 -4.35535,2.95738 -6.28799,3.46077 -1.66638,0.43403 -4.51832,0.19713 -4.70979,-0.39119 -0.0371,-0.11393 0.69077,-0.77688 1.61695,-1.4733 3.20468,-2.40968 4.01731,-3.61232 4.6173,-6.83162 0.45924,-2.46413 0.28197,-2.24821 2.31872,-2.82464 0.99612,-0.28192 1.95583,-0.51563 2.13268,-0.51934 0.20185,-0.004 0.58531,0.41442 1.02991,1.12499 1.79943,2.87589 2.97062,4.36958 5.07773,6.47506 3.26249,3.25996 5.26001,4.33566 8.33179,4.48706 1.49755,0.0738 1.887,0.0266 3.00654,-0.36277 3.19785,-1.11212 6.19921,-4.12424 7.13806,-7.1639 0.43955,-1.42309 0.47555,-3.68323 0.0827,-5.19141 -0.39201,-1.50502 -1.36743,-3.26849 -2.77037,-5.006417 -1.13546,-1.40657 -2.84033,-3.03358 -3.00343,-2.86649 -0.0404,0.0413 0.43775,0.71407 1.06195,1.49449 1.88975,2.362647 3.19971,4.833957 3.73775,7.051757 0.11557,0.47638 0.17381,1.54828 0.12971,2.38848 -0.11382,2.16861 -0.92974,3.78668 -2.88819,5.72679 -1.98513,1.96655 -3.55391,2.74465 -5.74126,2.84737 -1.26837,0.0596 -1.79413,-0.002 -2.74608,-0.32143 -3.30242,-1.10704 -7.191,-4.77302 -10.03867,-9.4635 -0.45529,-0.74994 -0.82785,-1.45927 -0.82785,-1.57665 0,-0.1856 1.1313,-0.77253 2.51509,-1.30483 1.09632,-0.42173 0.0345,-0.25451 -2.61069,0.41134 -6.02243,1.516 -11.61556,2.18614 -15.02131,1.79989 -2.46596,-0.27966 -3.70796,-0.62227 -5.62084,-1.55029 -1.9137,-0.92841 -3.45273,-2.12456 -4.67,-3.62923 -0.98499,-1.217527 -2.37147,-3.859387 -2.27532,-4.335657 0.0569,-0.28175 0.11333,-0.27337 0.57154,0.0878 0.70998,0.55969 2.16795,1.08262 3.01842,1.08262 1.05497,0 2.57186,-0.63598 3.35277,-1.40611 2.53831,-2.50329 1.59963,-6.70828 -1.77508,-7.95249 -2.09518,-0.77247 -5.03137,0.44846 -5.8627,2.4381 -0.6833,1.63539 -1.03667,-0.49076 -0.89658,-5.395022 0.0896,-3.136649 0.61947,-7.728175 1.01027,-8.756055 0.1418,-0.372959 0.31903,-0.440576 1.42782,-0.543637 2.10521,-0.195648 2.3721,-0.455498 0.48421,-0.471289 -3.2461,-0.0271 -5.48495,-1.030642 -8.07186,-3.618383 -3.05855,-3.059531 -4.93155,-6.578372 -5.88801,-11.060824 -0.48514,-2.273599 -0.45059,-5.924061 0.0765,-8.052221 1.02095,-4.122279 3.39148,-7.053066 7.18251,-8.880078 3.35527,-1.617009 5.77711,-2.099939 6.91896,-1.379759 1.77786,1.12133 1.72697,3.618047 -0.2434,12.002367 -0.94654,4.02775 -1.03695,4.595104 -1.04851,6.580995 -0.0147,2.527688 0.23827,3.47518 1.30586,4.89014 0.51486,0.682368 1.00963,1.069274 2.00659,1.569413 0.72768,0.365048 1.36037,0.700974 1.40612,0.746723 0.0458,0.0457 -0.0934,0.38231 -0.30903,0.74776 -0.21562,0.365448 -0.35844,0.698339 -0.31729,0.739489 0.0706,0.0706 1.3788,-0.968243 3.92896,-3.120223 1.15034,-0.97073 1.81056,-1.403197 1.942,-1.271757 0.0409,0.0409 -0.18134,0.546653 -0.49403,1.123963 -2.09073,3.860118 1.68599,6.532843 7.33134,5.188313 3.47295,-0.827141 6.39793,-2.848451 7.4781,-5.168159 1.07478,-2.308151 -0.11717,-4.349631 -2.90422,-4.973341 -1.77063,-0.396251 -1.33509,-0.588643 2.06706,-0.911572 1.04593,-0.0993 2.62347,-0.232108 3.50521,-0.29559 0.88175,-0.0635 1.53334,-0.184179 1.44849,-0.2682 -0.0849,-0.084 -0.84673,-0.237887 -1.69344,-0.342098 -1.70785,-0.210209 -1.86392,-0.319771 -2.64066,-1.8526 -0.79545,-1.569741 -1.88029,-4.441502 -2.28927,-6.060612 -0.5448,-2.15688 -0.5962,-7.277996 -0.0915,-9.124508 1.511,-5.527741 5.86998,-9.65042 13.4922,-12.762012 3.94159,-1.609067 7.77879,-2.41961 10.87582,-2.355927 z m -6.76858,4.522721 c -1.94684,0 -2.03901,0.01844 -3.37137,0.67696 -2.68069,1.32487 -5.34254,4.328137 -7.85844,8.866127 -0.95183,1.716828 -1.38706,2.684965 -1.20302,2.675805 0.0696,-0.004 0.79205,-1.001681 1.60558,-2.21847 2.85814,-4.274878 5.69807,-7.249163 7.99641,-8.374682 1.6666,-0.816139 4.58382,-0.791829 5.51181,0.04599 0.38204,0.3449 0.40961,1.154993 0.0625,1.826244 -0.86262,1.668129 -6.19143,5.251799 -6.84196,4.601271 -0.28579,-0.28579 0.41806,-1.564884 1.45159,-2.638084 0.46492,-0.482759 1.43582,-1.279469 2.15801,-1.770951 1.51498,-1.031029 1.72699,-1.529252 0.58549,-1.376143 -2.03869,0.273441 -5.43016,3.860866 -5.43016,5.743837 0,0.723188 0.56835,1.270994 1.3131,1.265555 1.29897,-0.01 4.5277,-1.834772 6.3531,-3.591513 2.30246,-2.215859 2.45204,-4.317648 0.38189,-5.369697 -0.58517,-0.297381 -1.07125,-0.362252 -2.71456,-0.362252 z m -45.30267,16.475996 c -0.52623,0.01408 -1.09613,0.161885 -1.68827,0.46147 -0.93483,0.472972 -2.48335,2.199553 -3.04219,3.392043 -0.44678,0.953368 -0.48756,1.226577 -0.48215,3.215307 0.005,1.975619 0.0594,2.329788 0.59842,3.89382 0.7242,2.101548 2.60154,5.638265 2.85719,5.382617 0.0395,-0.0395 -0.29767,-0.953929 -0.74931,-2.031918 -1.08356,-2.586281 -1.54528,-4.35024 -1.66501,-6.361369 -0.12401,-2.082829 0.13589,-3.205451 1.06246,-4.593 1.74537,-2.613711 4.24862,-2.945006 4.88343,-0.645957 0.32193,1.16595 -0.2976,3.669798 -1.29863,5.248259 -0.59898,0.944489 -1.00897,1.028317 -1.38597,0.283187 -0.26765,-0.529022 -0.29971,-2.851431 -0.0537,-3.89227 0.18874,-0.79865 0.0809,-1.414997 -0.22944,-1.311547 -0.85631,0.28544 -1.43375,2.889903 -1.04697,4.722193 0.39531,1.87266 1.58119,2.668029 2.79415,1.873268 0.95901,-0.628369 2.22824,-3.503855 2.40812,-5.455996 0.23695,-2.571446 -1.0827,-4.230386 -2.96209,-4.180107 z m 25.65734,13.904579 c 1.47123,-0.0067 2.74712,0.35207 3.49798,1.182356 1.63632,1.809398 -1.27885,5.276477 -5.66735,6.740158 -1.36155,0.45412 -4.4342,0.649366 -5.42706,0.345196 -1.53495,-0.470239 -2.3402,-1.610603 -2.00815,-2.843752 0.80918,-3.005066 5.84478,-5.406798 9.60458,-5.423958 z m 9.34104,4.523237 c -0.11731,0.0019 -0.23241,0.01315 -0.34417,0.03411 -3.63299,0.681559 -4.67202,8.097824 -1.37356,9.803535 1.80444,0.933111 3.79462,-0.731718 3.78789,-3.168798 -0.002,-0.551662 -0.0817,-1.125437 -0.17829,-1.274858 -0.1265,-0.195749 -0.17756,-0.01841 -0.18242,0.634069 -0.0189,2.53116 -2.06928,4.068987 -3.40185,2.551266 -0.77588,-0.883669 -1.00099,-1.72688 -0.90486,-3.387389 0.10515,-1.81641 0.81007,-3.328445 1.80092,-3.862814 0.5865,-0.316301 0.73295,-0.327768 1.44229,-0.115239 1.07213,0.32122 2.93116,2.227517 3.81476,3.911907 1.83269,3.493608 1.16438,6.728833 -2.10685,10.198343 -1.17359,1.24473 -1.33544,1.47809 -0.82889,1.196308 0.34611,-0.192518 1.24924,-0.963255 2.00711,-1.712555 1.03371,-1.022022 1.55551,-1.720874 2.08773,-2.797762 0.6967,-1.409671 0.70952,-1.471912 0.70952,-3.450953 0,-2.002189 -0.005,-2.02498 -0.7581,-3.540868 -1.47537,-2.970152 -3.81158,-5.046731 -5.57123,-5.018299 z m 14.5004,3.592028 c -0.20718,-1.24e-4 -0.44846,0.01125 -0.74827,0.03049 -1.083,0.0695 -1.52289,0.192341 -2.21382,0.617532 -1.04122,0.64076 -1.91902,1.887069 -2.22415,3.158979 -0.67699,2.822012 1.74733,5.808599 4.68291,5.769158 0.56407,-0.008 1.28481,-0.109403 1.60197,-0.226343 1.08806,-0.401148 2.12639,-1.296279 2.67529,-2.306318 0.44651,-0.82165 0.53598,-1.195694 0.53899,-2.253093 0.006,-1.96859 -0.94457,-3.493725 -2.71715,-4.360974 -0.66039,-0.323101 -0.97422,-0.429059 -1.59577,-0.429431 z m -0.42994,1.106392 c 1.26124,0.0082 2.53633,0.642858 3.25716,2.031402 1.48363,2.85791 -1.4338,6.211173 -4.47828,5.146972 -1.51123,-0.528259 -2.44735,-1.906649 -2.44223,-3.59668 0.007,-2.266902 1.81998,-3.593587 3.66335,-3.581694 z m -33.20883,3.460256 c -1.72932,0.01378 -3.07966,1.681165 -3.68401,4.698936 -1.1019,5.502251 1.32077,9.194721 7.04608,10.739401 1.85731,0.5011 2.06266,0.27444 0.32349,-0.35709 -2.7041,-0.98192 -4.35975,-2.15382 -5.44049,-3.851961 -1.22779,-1.929198 -1.44757,-4.812461 -0.57671,-7.560262 0.47637,-1.50309 1.45093,-2.630329 2.27428,-2.630329 2.31451,0 5.00397,3.946155 4.24884,6.234245 -0.64601,1.957419 -2.81396,1.468207 -4.35012,-0.981853 l -0.3974,-0.634068 0.11989,0.543634 c 0.17518,0.795181 0.92786,2.006735 1.49913,2.412772 2.116,1.503982 4.26929,0.284128 4.27571,-2.422072 0.005,-2.129002 -1.7445,-4.799328 -3.80493,-5.807398 -0.53564,-0.262062 -1.04955,-0.387818 -1.53376,-0.383955 z m 15.81661,5.392435 c -0.51317,0.0113 -6.09848,4.229693 -6.16139,4.653463 -0.12241,0.824629 3.5692,1.657614 4.97903,1.123444 1.35118,-0.51195 1.94642,-1.592482 1.93942,-3.51968 -0.006,-1.53956 -0.25009,-2.268376 -0.75706,-2.257227 z m -0.58756,1.732193 c 0.69825,-0.0466 0.32188,2.151589 -0.47595,2.779159 -0.46195,0.363379 -1.59061,0.463974 -2.73316,0.243912 -0.22413,-0.0432 -0.40773,-0.187322 -0.40773,-0.320392 0,-0.28063 3.20445,-2.675149 3.61684,-2.702679 z m 12.01063,3.712435 c -4.09153,-0.03571 -7.62383,1.292154 -11.98635,4.465364 -5.25553,3.82277 -7.43572,6.82459 -6.14691,8.46305 0.8291,1.05403 2.75201,1.30831 4.61626,0.61081 1.88943,-0.70693 4.44916,-2.4126 6.52673,-4.3496 0.517,-0.48202 1.0346,-0.87644 1.1498,-0.87644 0.11519,0 0.57844,0.32504 1.02991,0.72244 1.19912,1.05552 2.61464,1.70384 3.43028,1.57148 0.80119,-0.13001 1.50999,-0.75806 1.50999,-1.33842 0,-0.54951 -0.43389,-1.39007 -1.20406,-2.33267 -0.92727,-1.13489 -0.84754,-1.26734 0.84749,-1.4087 1.96689,-0.16404 3.27875,-0.68452 4.36408,-1.73065 1.04174,-1.0041 1.15265,-1.65413 0.42994,-2.51302 -0.66843,-0.79439 -1.74024,-1.155012 -3.74137,-1.258324 -0.27815,-0.01437 -0.55302,-0.02294 -0.82579,-0.02532 z m -0.0517,1.171506 c 3.70792,-0.02201 4.92844,0.896948 2.97191,2.237588 -0.92981,0.63711 -1.93348,0.91454 -3.75223,1.03766 -0.91565,0.062 -1.80747,0.186 -1.98179,0.27544 -0.67226,0.34493 -0.30038,1.46847 1.03818,3.13779 0.73989,0.9227 0.8621,1.27785 0.53382,1.5503 -0.4382,0.36368 -1.78489,-0.28796 -3.05976,-1.48054 -0.62655,-0.5861 -1.27268,-1.06556 -1.43609,-1.06556 -0.16342,0 -1.09039,0.69948 -2.05982,1.55442 -2.18871,1.93021 -4.47881,3.47419 -5.81515,3.92069 -1.441,0.48147 -2.54801,0.56633 -3.1254,0.23927 -0.68499,-0.38801 -0.75956,-0.76903 -0.32607,-1.6645 0.91952,-1.89947 6.17116,-6.20584 9.67744,-7.93544 2.64405,-1.30426 4.61989,-1.790978 7.33496,-1.807118 z m -33.60932,1.894458 c 1.91307,0.0477 3.61166,1.6022 3.61166,3.70778 0,1.59551 -1.02333,2.98412 -2.58433,3.50677 -0.92825,0.31079 -1.64088,0.24794 -2.67839,-0.23513 -2.75038,-1.28056 -2.73399,-5.39019 0.0263,-6.64404 0.5368,-0.24384 1.08904,-0.34875 1.6247,-0.33538 z m 54.54344,7.23677 c 1.1224,-0.003 2.49786,0.0876 2.79156,0.23513 0.54142,0.27196 1.47706,1.61807 1.90686,2.7435 0.36298,0.95046 0.25872,1.576307 -0.36639,2.201407 -0.36514,0.36515 -0.59525,0.43086 -1.39629,0.39998 -0.5275,-0.0203 -2.01233,-0.0816 -3.29955,-0.13591 l -2.34042,-0.0987 -0.42116,-0.7984 c -0.52217,-0.988667 -0.53262,-1.490167 -0.0398,-1.935287 0.21011,-0.18976 0.61352,-0.8035 0.89658,-1.36374 0.28305,-0.56024 0.64783,-1.06989 0.81029,-1.13223 0.20291,-0.0779 0.78487,-0.11379 1.45831,-0.11575 z m -1.59732,6.045617 c 1.31377,-0.0563 5.7592,0.74949 8.45943,1.5844 2.92049,0.903 5.16661,2.23836 5.16661,3.07216 0,0.7017 -1.08835,1.00739 -4.39146,1.23301 -2.24299,0.15319 -2.35563,0.18112 -3.98426,0.99167 -0.92184,0.45879 -2.38201,1.36572 -3.24476,2.01486 -1.63885,1.23306 -1.65762,1.24401 -1.82573,1.0759 -0.0573,-0.0573 -0.0285,-0.36277 0.0641,-0.67903 0.61397,-2.09601 0.48273,-5.34693 -0.31109,-7.71167 -0.26111,-0.77785 -0.38285,-1.40878 -0.28991,-1.50171 0.0456,-0.0456 0.16941,-0.0715 0.35709,-0.0796 z"
         sodipodi:nodetypes="sssssssssssssssssssscccssssssssssssssssssssssscsssscscssssssccscssscsssscccscssssssssscccssscssssssssscssssscscsssssssssscssssssscssssscsssssssssssssssscsssssssssssssssssssssssssssscscssscssssscsssssssssssssssssssssssssscsssssssssscssssscsscssssssssssssssscsscsssssscsssssccssssssssssssssssssssssssscsssssssssscccssssssssssscssssccssssssssscssss" />
      <path
         id="path1161"
         style="fill:#ff9f6c;fill-opacity:1;stroke:none;stroke-width:0.999999px;stroke-linecap:butt;stroke-linejoin:miter;stroke-opacity:1"
         d="m 622.57422,103.02148 c -7.28566,0.004 -16.49429,1.0356 -23.20508,2.79493 -30.63124,8.03042 -54.77379,24.28796 -64.32617,43.31836 -0.47299,0.94228 -0.90228,1.94723 -1.3125,2.97851 7.16109,14.4369 18.86508,29.60241 37.43359,38.14063 0.25234,-0.53675 0.53426,-1.1172 0.8711,-1.79688 6.99868,-14.12239 17.0185,-21.81577 51.38672,-39.45508 12.11256,-6.21671 19.48067,-10.43667 21.26367,-12.17773 11.92654,-11.64595 4.6284,-29.194 -13.78321,-33.14258 -2.10177,-0.45075 -5.01646,-0.66204 -8.32812,-0.66016 z"
         transform="scale(0.26458333)"
         sodipodi:nodetypes="ssscccssss" />
      <path
         style="fill:#ff9f6c;fill-opacity:1;stroke:#000000;stroke-width:0.505076"
         d="m 493.61625,264.09759 c -10.19328,-3.36346 -8.4965,-13.35764 3.64672,-21.47953 7.51649,-5.02733 16.1947,-7.7383 24.98252,-7.80423 5.01605,-0.0376 6.16101,0.11376 8.39348,1.10984 1.42182,0.63437 3.35373,1.94642 4.29315,2.91566 2.10774,2.17463 2.27321,4.80614 0.5269,8.37912 -3.20089,6.54907 -14.55555,14.27861 -24.32521,16.55908 -3.89697,0.90964 -15.1099,1.11451 -17.51756,0.32006 z"
         id="path1163"
         transform="scale(0.26458333)" />
      <path
         style="fill:#ff9f6c;fill-opacity:1;stroke:#000000;stroke-width:0.505076"
         d="m 456.08049,360.20888 c -2.78982,-1.26139 -5.29319,-3.59686 -6.72481,-6.27379 -1.44162,-2.69563 -1.5235,-8.76105 -0.15341,-11.36422 1.29615,-2.46268 3.74966,-4.95859 6.02888,-6.13306 9.79754,-5.04859 21.43376,4.68418 18.33682,15.33728 -2.15732,7.4209 -10.65915,11.52112 -17.48748,8.43379 z"
         id="path1165"
         transform="scale(0.26458333)" />
      <path
         style="fill:#ff9f6c;fill-opacity:1;stroke:#000000;stroke-width:0.505076"
         d="m 605.18817,294.29639 c -4.47635,-2.23065 -7.2037,-6.80961 -7.15907,-12.01936 0.0428,-5.00023 2.30388,-8.80347 6.6679,-11.21584 2.22912,-1.23223 3.21967,-1.46516 6.18937,-1.45542 4.22109,0.0138 6.689,1.12304 9.55371,4.29393 2.50047,2.76772 3.47143,5.16394 3.47143,8.5671 0,3.47676 -1.00316,5.87497 -3.66575,8.76354 -4.13468,4.4856 -9.86673,5.65277 -15.05759,3.06605 z"
         id="path1167"
         transform="scale(0.26458333)" />
      <path
         style="fill:#000000;fill-opacity:0;stroke:none;stroke-width:0.505076"
         d="m 590.01514,495.30546 c 2.99798,-9.95237 2.9908,-9.91388 3.03803,-16.28871 0.0461,-6.22229 0.0222,-6.36086 -1.65427,-9.59645 -2.14635,-4.14243 -5.441,-8.80334 -9.58933,-13.56598 -1.90739,-2.18984 -2.84703,-3.59654 -2.28704,-3.42384 6.01287,1.85442 12.20073,2.95335 17.51819,3.11112 4.32558,0.12834 6.83446,0.46751 9.14439,1.23621 2.88977,0.96165 3.16176,1.17208 2.9496,2.28194 -0.29972,1.56786 1.29812,2.03338 5.47935,1.59635 1.64015,-0.17143 2.98209,-0.18566 2.98209,-0.0316 0,0.15404 -0.69676,1.29276 -1.54835,2.5305 -3.80288,5.52731 -7.5007,14.86987 -10.57946,26.72906 -0.5781,2.22682 -1.23195,4.3414 -1.45299,4.69905 -0.49732,0.80468 -5.64916,1.58258 -10.57063,1.5961 -3.28707,0.009 -3.66639,-0.0876 -3.42958,-0.87372 z"
         id="path1169"
         transform="scale(0.26458333)" />
      <path
         style="fill:#000000;fill-opacity:0;stroke:none;stroke-width:0.505076"
         d="m 663.55736,419.8565 c -4e-4,-0.658 0.26199,-3.62175 0.5831,-6.58611 0.71123,-6.56581 0.01,-14.88773 -1.78847,-21.21815 -2.01578,-7.09624 -2.00416,-6.98001 -0.69756,-6.97735 0.63032,0.001 4.1079,0.4381 7.72794,0.97072 13.37653,1.96808 26.06084,5.42508 33.951,9.25305 4.30275,2.0875 8.71204,5.49125 8.71204,6.72524 0,1.91028 -3.96161,2.89978 -15.95546,3.98524 -5.36262,0.48532 -9.05818,1.08396 -10.86516,1.76004 -4.60258,1.72205 -12.87862,6.70402 -20.0252,12.05469 l -1.6415,1.229 z"
         id="path1171"
         transform="scale(0.26458333)" />
      <path
         style="fill:#000000;fill-opacity:0;stroke:none;stroke-width:0.505076"
         d="m 667.34616,381.51104 c -3.88909,-0.19571 -7.67577,-0.38357 -8.41485,-0.41747 -1.09087,-0.05 -1.58993,-0.55558 -2.65165,-2.68617 -1.49863,-3.00735 -1.66539,-5.03626 -0.49388,-6.00854 0.4477,-0.37155 1.85051,-2.45944 3.11735,-4.63975 1.26685,-2.18031 2.7694,-4.29062 3.339,-4.68959 1.16391,-0.81523 8.84543,-0.96278 13.17267,-0.25303 2.0993,0.34433 2.82463,0.7742 4.40767,2.61226 2.58854,3.00551 5.09882,8.25483 5.1538,10.77726 0.0286,1.31454 -0.31661,2.5331 -0.96405,3.40244 -1.93387,2.59671 -2.22125,2.62952 -16.66606,1.90259 z"
         id="path1173"
         transform="scale(0.26458333)" />
      <path
         style="fill:#000000;fill-rule:evenodd;stroke:#000000;stroke-width:0.264583"
         d="m 143.68938,81.665714 c 0.69825,-0.0466 0.32188,2.151589 -0.47595,2.779159 -0.46195,0.363379 -1.59061,0.463974 -2.73316,0.243912 -0.22413,-0.0432 -0.40773,-0.187322 -0.40773,-0.320392 0,-0.28063 3.20445,-2.675149 3.61684,-2.702679 z"
         id="path1175" />
      <path
         style="fill:#000000;fill-rule:evenodd;stroke:#000000;stroke-width:0.264583"
         d="m 144.27694,79.933521 c -0.51317,0.0113 -6.09848,4.229693 -6.16139,4.653463 -0.12241,0.824629 3.5692,1.657614 4.97903,1.123444 1.35118,-0.51195 1.94642,-1.592482 1.93942,-3.51968 -0.006,-1.53956 -0.25009,-2.268376 -0.75706,-2.257227 z"
         id="path1177" />
      <path
         style="fill:#000000;fill-rule:evenodd;stroke:#000000;stroke-width:0.264583"
         d="m 128.46033,74.541086 c -1.72932,0.01378 -3.07966,1.681165 -3.68401,4.698936 -1.1019,5.502251 1.32077,9.194721 7.04608,10.739401 1.85731,0.5011 2.06266,0.27444 0.32349,-0.35709 -2.7041,-0.98192 -4.35975,-2.15382 -5.44049,-3.851961 -1.22779,-1.929198 -1.44757,-4.812461 -0.57671,-7.560262 0.47637,-1.50309 1.45093,-2.630329 2.27428,-2.630329 2.31451,0 5.00397,3.946155 4.24884,6.234245 -0.64601,1.957419 -2.81396,1.468207 -4.35012,-0.981853 l -0.3974,-0.634068 0.11989,0.543634 c 0.17518,0.795181 0.92786,2.006735 1.49913,2.412772 2.116,1.503982 4.26929,0.284128 4.27571,-2.422072 0.005,-2.129002 -1.7445,-4.799328 -3.80493,-5.807398 -0.53564,-0.262062 -1.04955,-0.387818 -1.53376,-0.383955 z"
         id="path1179" />
      <path
         style="fill:#000000;fill-rule:evenodd;stroke:#000000;stroke-width:0.264583"
         d="m 147.5987,66.38241 c -0.11731,0.0019 -0.23241,0.01315 -0.34417,0.03411 -3.63299,0.681559 -4.67202,8.097824 -1.37356,9.803535 1.80444,0.933111 3.79462,-0.731718 3.78789,-3.168798 -0.002,-0.551662 -0.0817,-1.125437 -0.17829,-1.274858 -0.1265,-0.195749 -0.17756,-0.01841 -0.18242,0.634069 -0.0189,2.53116 -2.06928,4.068987 -3.40185,2.551266 -0.77588,-0.883669 -1.00099,-1.72688 -0.90486,-3.387389 0.10515,-1.81641 0.81007,-3.328445 1.80092,-3.862814 0.5865,-0.316301 0.73295,-0.327768 1.44229,-0.115239 1.07213,0.32122 2.93116,2.227517 3.81476,3.911907 1.83269,3.493608 1.16438,6.728833 -2.10685,10.198343 -1.17359,1.24473 -1.33544,1.47809 -0.82889,1.196308 0.34611,-0.192518 1.24924,-0.963255 2.00711,-1.712555 1.03371,-1.022022 1.55551,-1.720874 2.08773,-2.797762 0.6967,-1.409671 0.70952,-1.471912 0.70952,-3.450953 0,-2.002189 -0.005,-2.02498 -0.7581,-3.540868 -1.47537,-2.970152 -3.81158,-5.046731 -5.57123,-5.018299 z"
         id="path1181" />
      <path
         style="fill:#000000;fill-rule:evenodd;stroke:#000000;stroke-width:0.264583"
         d="m 112.60032,47.954594 c -0.52623,0.01408 -1.09613,0.161885 -1.68827,0.46147 -0.93483,0.472972 -2.48335,2.199553 -3.04219,3.392043 -0.44678,0.953368 -0.48756,1.226577 -0.48215,3.215307 0.005,1.975619 0.0594,2.329788 0.59842,3.89382 0.7242,2.101548 2.60154,5.638265 2.85719,5.382617 0.0395,-0.0395 -0.29767,-0.953929 -0.74931,-2.031918 -1.08356,-2.586281 -1.54528,-4.35024 -1.66501,-6.361369 -0.12401,-2.082829 0.13589,-3.205451 1.06246,-4.593 1.74537,-2.613711 4.24862,-2.945006 4.88343,-0.645957 0.32193,1.16595 -0.2976,3.669798 -1.29863,5.248259 -0.59898,0.944489 -1.00897,1.028317 -1.38597,0.283187 -0.26765,-0.529022 -0.29971,-2.851431 -0.0537,-3.89227 0.18874,-0.79865 0.0809,-1.414997 -0.22944,-1.311547 -0.85631,0.28544 -1.43375,2.889903 -1.04697,4.722193 0.39531,1.87266 1.58119,2.668029 2.79415,1.873268 0.95901,-0.628369 2.22824,-3.503855 2.40812,-5.455996 0.23695,-2.571446 -1.0827,-4.230386 -2.96209,-4.180107 z"
         id="path1183" />
      <path
         style="fill:#000000;fill-rule:evenodd;stroke:#000000;stroke-width:0.264583"
         d="m 157.90299,31.478598 c -1.94684,0 -2.03901,0.01844 -3.37137,0.67696 -2.68069,1.32487 -5.34254,4.328137 -7.85844,8.866127 -0.95183,1.716828 -1.38706,2.684965 -1.20302,2.675805 0.0696,-0.004 0.79205,-1.001681 1.60558,-2.21847 2.85814,-4.274878 5.69807,-7.249163 7.99641,-8.374682 1.6666,-0.816139 4.58382,-0.791829 5.51181,0.04599 0.38204,0.3449 0.40961,1.154993 0.0625,1.826244 -0.86262,1.668129 -6.19143,5.251799 -6.84196,4.601271 -0.28579,-0.28579 0.41806,-1.564884 1.45159,-2.638084 0.46492,-0.482759 1.43582,-1.279469 2.15801,-1.770951 1.51498,-1.031029 1.72699,-1.529252 0.58549,-1.376143 -2.03869,0.273441 -5.43016,3.860866 -5.43016,5.743837 0,0.723188 0.56835,1.270994 1.3131,1.265555 1.29897,-0.01 4.5277,-1.834772 6.3531,-3.591513 2.30246,-2.215859 2.45204,-4.317648 0.38189,-5.369697 -0.58517,-0.297381 -1.07125,-0.362252 -2.71456,-0.362252 z"
         id="path1185" />
      <path
         style="fill:#efaf94;fill-opacity:0.458333;stroke:none;stroke-width:0.357143"
         d="m 589.882,495.82125 c 0.002,-0.24554 0.65091,-2.68993 1.44152,-5.43198 1.58039,-5.48122 2.06485,-9.48447 1.76078,-14.54988 -0.1717,-2.86027 -0.33421,-3.39883 -2.04763,-6.78571 -1.97091,-3.89589 -5.9565,-9.4556 -9.89643,-13.80507 -1.30841,-1.44441 -2.29916,-2.70598 -2.20166,-2.80347 0.0975,-0.0975 2.47821,0.3977 5.29046,1.10044 5.22346,1.30526 11.56302,2.36495 14.14826,2.36495 h 1.44339 l 0.58807,2.58553 c 1.30999,5.75957 1.31735,17.69927 0.0178,28.84305 -1.11712,9.5793 -0.82387,8.46415 -2.28955,8.70656 -2.50102,0.41365 -8.25936,0.25711 -8.25499,-0.22442 z"
         id="path1187"
         transform="scale(0.26458333)" />
      <path
         id="path1189"
         style="fill:#efaf94;fill-opacity:0.866071;stroke:none;stroke-width:0.357143"
         transform="scale(0.26458333)"
         d="m 663.34976,420.0734 c -0.094,-0.61993 0.0384,-2.17179 0.29413,-3.44858 1.00566,-5.02102 0.99013,-11.60694 -0.0447,-18.95749 l -0.23034,-1.63607 2.9867,-0.68267 c 4.68443,-1.07072 14.26294,-0.91998 20.71852,0.32606 6.89078,1.33004 15.44746,4.0243 22.26818,7.01163 l 1.78572,0.7821 -0.94977,0.50123 c -1.39338,0.73535 -6.37463,1.48634 -13.95134,2.10334 -8.36954,0.68157 -9.20866,0.87217 -14.02747,3.18619 -4.78947,2.29994 -9.05422,4.91605 -14.53053,8.91344 l -4.14825,3.02797 z"
         sodipodi:nodetypes="ssscssscsssscs" />
      <path
         style="fill:#efaf94;fill-opacity:0.866071;stroke:none;stroke-width:0.357143"
         d="m 665.59223,381.55684 c -4.02678,-0.17306 -7.51194,-0.38024 -7.74479,-0.46042 -0.69939,-0.2408 -2.97025,-5.34424 -2.95989,-6.65193 0.006,-0.78978 0.35478,-1.62861 0.99964,-2.40595 l 0.99003,-1.19342 2.33834,1.28532 c 4.23636,2.32859 7.12097,3.134 11.92407,3.32929 4.74324,0.19285 7.17476,-0.23603 10.95421,-1.93215 1.14657,-0.51455 2.15274,-0.86746 2.23595,-0.78425 0.0832,0.0832 0.3452,0.87628 0.58219,1.76239 0.65079,2.43321 0.18535,4.13655 -1.62496,5.94686 l -1.52938,1.52938 -4.42199,-0.0552 c -2.43209,-0.0304 -7.71663,-0.19683 -11.74342,-0.36989 z"
         id="path1191"
         transform="scale(0.26458333)" />
      <path
         style="fill:#efaf94;fill-opacity:0.458333;stroke:none;stroke-width:0.357143"
         d="m 669.95191,375.42633 c -3.15673,0.16532 -6.99702,-1.52273 -10.04043,-3.01744 l -3.29433,-1.61794 2.46647,-3.48934 c 0.89318,-1.26359 1.75541,-2.99777 2.27532,-3.63157 l 0.94527,-1.15236 6.91187,0.0205 c 8.24384,0.0244 8.74004,0.17877 11.23167,3.49337 1.4924,1.98533 3.5067,5.79326 3.5067,6.32479 0,0.11636 -1.03869,0.69763 -2.3082,1.2917 -3.35254,1.56885 -6.95925,2.47288 -11.69434,1.7783 z"
         id="path1193"
         transform="scale(0.26458333)"
         sodipodi:nodetypes="cscsscsssscc" />
      <path
         style="fill:#d25f86;fill-opacity:1;stroke:none;stroke-width:0.252538"
         d="m 526.51343,370.05435 c -0.53238,-0.14107 -1.42815,-0.69425 -1.99061,-1.2293 -0.95948,-0.91273 -1.01241,-1.03686 -0.85689,-2.00946 0.42615,-2.66496 2.83182,-5.94844 8.13412,-11.1022 8.44292,-8.20638 20.01843,-16.63203 29.13491,-21.2069 2.64257,-1.3261 7.21394,-3.28687 7.66307,-3.28687 0.15015,0 -0.91426,0.77402 -2.36534,1.72005 -9.39901,6.12762 -17.35738,15.93881 -24.13435,29.75316 l -2.36969,4.83044 -1.19913,0.51092 c -2.87575,1.22526 -7.70456,2.35112 -9.87647,2.30274 -0.64441,-0.0143 -1.60724,-0.14152 -2.13962,-0.28258 z"
         id="path1195"
         transform="scale(0.26458333)" />
      <path
         style="fill:#ffa6ec;fill-opacity:1;stroke:none;stroke-width:0.252538"
         d="m 540.23457,366.95111 c 0,-0.30459 4.62879,-9.34093 5.83374,-11.38866 5.85054,-9.94257 12.5962,-17.4285 20.36016,-22.59451 1.08026,-0.71878 2.08032,-1.44942 2.22236,-1.62362 0.38984,-0.47812 4.77115,-1.80921 8.26072,-2.5097 11.31668,-2.27168 25.4474,-0.84963 25.4474,2.56093 0,0.79102 -1.70649,2.60929 -3.63371,3.87173 -3.26323,2.13761 -6.53384,2.99289 -14.0165,3.66542 -8.13115,0.73081 -8.77375,1.05236 -8.56777,4.28713 0.13565,2.13039 1.40721,4.65507 4.2418,8.42207 2.65731,3.53142 3.28617,4.53428 3.28742,5.24255 0.003,1.40619 -1.70901,1.39584 -4.53524,-0.0274 -1.9816,-0.99792 -4.19977,-2.62632 -7.15413,-5.25195 -2.75066,-2.4446 -4.27433,-3.46541 -5.17251,-3.46541 -0.94978,0 -3.18043,1.57514 -7.83985,5.536 -6.9378,5.89765 -10.91954,8.88269 -15.89521,11.91637 -2.30651,1.40629 -2.83868,1.66107 -2.83868,1.35907 z"
         id="path1197"
         transform="scale(0.26458333)" />
      <path
         style="fill:#000000;fill-opacity:0.175595;stroke:none;stroke-width:0.264583px;stroke-linecap:butt;stroke-linejoin:miter;stroke-opacity:1"
         d="m 146.59733,47.17307 c 0,0 10.28988,-14.900275 21.31475,-15.969353 11.02487,-1.069078 2.60588,6.34765 2.60588,6.34765 l -11.1585,6.815373 c 0,0 -5.61267,5.011304 -5.7463,5.278575 -0.13364,0.267269 -2.49267,0.692698 -2.49267,0.692698 z"
         id="path1199" />
    </g>
  </g>
</svg>
